<svg xmlns="http://www.w3.org/2000/svg" viewBox="0 0 1217.25 413.51"><defs><style>.cls-1,.cls-6{fill:#292b40;}.cls-1{opacity:0.15;}.cls-2{fill:#fff;}.cls-3{fill:#07a7b4;}.cls-4{fill:#f8bb03;}.cls-5{fill:#1d1e1c;opacity:0.2;}.cls-7{fill:#e73b5b;}.cls-8{fill:#fcd239;}.cls-9{fill:#00a286;}</style></defs><title>LogoME</title><g id="Calque_2" data-name="Calque 2"><g id="Calque_1-2" data-name="Calque 1"><path class="cls-1" d="M395.23,77.81l-.05-.19c-5.86-21.35-28-43.44-49.26-49.24l-.17,0a530,530,0,0,0-268.93,0l-.19,0c-21.35,5.86-43.44,28-49.24,49.27l0,.16a530.28,530.28,0,0,0-.05,268.88l.05.19c5.86,21.35,27.95,43.44,49.26,49.24l.16,0a534.71,534.71,0,0,0,134.47,17.35,534.71,534.71,0,0,0,134.47-17.35l.15,0c21.26-5.78,43.38-27.83,49.3-49.15l.07-.23A530,530,0,0,0,395.23,77.81Z"/><path class="cls-2" d="M385.23,66.81l-.05-.19c-5.86-21.35-28-43.44-49.26-49.24l-.17,0a530,530,0,0,0-268.93,0l-.19,0c-21.35,5.86-43.44,28-49.24,49.27l0,.16a530.28,530.28,0,0,0-.05,268.88l.05.19c5.86,21.35,27.95,43.44,49.26,49.24l.16,0a534.71,534.71,0,0,0,134.47,17.35,534.71,534.71,0,0,0,134.47-17.35l.15,0c21.26-5.78,43.38-27.83,49.3-49.15l.07-.23A530,530,0,0,0,385.23,66.81Z"/><path class="cls-3" d="M388.66,213.85a5.48,5.48,0,0,0-3-2.35,7.92,7.92,0,0,0-3.56,0,8.16,8.16,0,0,0-2.87,1.24c-40.17,36-82.88,77.57-122.36,118.88a12.71,12.71,0,0,1-3.62,2.45,10.45,10.45,0,0,1-3.82.84,974.62,974.62,0,0,1-133.35-2.57,41.45,41.45,0,0,1-5.48-4.11c-9.42-8.41-7.21-14.64-14.41-21.88s-13.24-5-21.42-14.18a39.08,39.08,0,0,1-4-5.45,972.91,972.91,0,0,1-2.44-135.08,8.58,8.58,0,0,1,.78-2.84,9.35,9.35,0,0,1,1.76-2.47C112.24,106.84,153.91,64.1,190,23.73a6.53,6.53,0,0,0,.95-6.68,5,5,0,0,0-4.44-3.26q-20.08.48-40.17,2.31l-1.24.16h0A643.3,643.3,0,0,0,74.55,26.83c-21,4.56-43.08,26.64-47.8,47.63a640.36,640.36,0,0,0-10.7,71.74l-.16,3.65A619.49,619.49,0,0,0,27.5,331.56c4.3,19.3,24.78,39.74,44.08,44.05A619.48,619.48,0,0,0,257,386.92h1.15a643.27,643.27,0,0,0,70.55-10.56c21-4.63,43.07-26.71,47.67-47.71A628.42,628.42,0,0,0,387,256.92c0-1.24.23-2.47.33-3.71q1.56-18.5,2-37A4.71,4.71,0,0,0,388.66,213.85Z"/><path class="cls-4" d="M73.73,316.23a.57.57,0,0,0,0,.26V316A.57.57,0,0,0,73.73,316.23Z"/><path class="cls-5" d="M388.31,240.47c.72-12.33.68-11.95,1.07-24.21a4.71,4.71,0,0,0-.72-2.41,5.48,5.48,0,0,0-3-2.35,7.92,7.92,0,0,0-3.56,0,8.16,8.16,0,0,0-2.87,1.24c-40.17,36-82.88,77.57-122.36,118.88a12.71,12.71,0,0,1-3.62,2.45,10.66,10.66,0,0,1-3.82.84,974.62,974.62,0,0,1-133.35-2.57,41.45,41.45,0,0,1-5.48-4.11c-6.68-6-7.52-10.83-10-15.74l-20,14.29c18.72,20.48,176.19,29,189.39,25.44,8-2.17,65.23-43.93,117.31-98.6.49-4.37.34-4.76.74-9.13C388.12,243.23,388.23,241.71,388.31,240.47Z"/><path class="cls-6" d="M151.46,327.58a112.71,112.71,0,0,0-28.76-45.32,133.35,133.35,0,0,0-46.3-29.35,45.1,45.1,0,0,0-8.08-2.7q1.59,32.86,5.41,65.66v.3a15.78,15.78,0,0,0,13,13q33.45,4.11,66.91,5.7Z"/><path class="cls-7" d="M250.12,20.45,115.74,154.83A7.84,7.84,0,0,0,118,167.49q10,4.65,19.48,10.19a7.84,7.84,0,0,0,9.5-1.22l144.6-144.6a7.17,7.17,0,0,0-3.85-12.15c-8.3-1.45-16.56-2.67-24.83-3.69A15.43,15.43,0,0,0,250.12,20.45Z"/><path class="cls-8" d="M336.33,40.15l-155.94,156a9.8,9.8,0,0,0,.19,14q6.27,6,12.09,12.39a9.52,9.52,0,0,0,13.79.36l157.2-157.2a10.22,10.22,0,0,0,.92-13.43,72.94,72.94,0,0,0-13-13.09A11.55,11.55,0,0,0,336.33,40.15Z"/><path class="cls-9" d="M373.74,108,228.25,253.52a13.76,13.76,0,0,0-2.45,16.18,186.42,186.42,0,0,1,9.42,19.94h0c2,4.53,6.08,3.74,8.35,1.42L384.49,150.14a10,10,0,0,0,2.85-8.22q-1.83-15.54-4.61-31.07A5.31,5.31,0,0,0,373.74,108Z"/><path class="cls-6" d="M941.64,306.32h0a17.72,17.72,0,0,1-17.72-17.72V115.1a17.72,17.72,0,0,1,17.72-17.72h0a17.72,17.72,0,0,1,17.72,17.72V288.6A17.73,17.73,0,0,1,941.64,306.32Z"/><path class="cls-6" d="M725.21,264a35,35,0,0,1-23.67,9.42A35.36,35.36,0,0,1,666.05,239a35.55,35.55,0,0,1,9.68-25c6.72-6.72,15.33-10.75,24.74-10.75a36.67,36.67,0,0,1,9,1.11c9,2.26,17.77-4.53,19-13.71h0a16.24,16.24,0,0,0-12.44-18A66.49,66.49,0,0,0,699.94,171a67.39,67.39,0,0,0-47.07,20.7,65.71,65.71,0,0,0-19.09,47.87,68.52,68.52,0,0,0,20.7,47.33,67,67,0,0,0,46.8,18.83h1.07a66.88,66.88,0,0,0,44.63-18,16.16,16.16,0,0,0,.82-22.86C741.88,258.37,731.39,257.84,725.21,264Z"/><path class="cls-6" d="M833,306.18a66.55,66.55,0,0,1,0-133.1c36.59,0,66.55,30,66.81,66.82A66.93,66.93,0,0,1,833,306.18Zm0-100.48a33.94,33.94,0,1,0,33.94,33.93A33.82,33.82,0,0,0,833,205.7Z"/><path class="cls-3" d="M1112.29,292.19a3.35,3.35,0,0,1,3.38,3.38,3.38,3.38,0,1,1-6.76,0A3.35,3.35,0,0,1,1112.29,292.19Z"/><path class="cls-3" d="M1148.78,364.37h-.16c-3.71,0-5.8-3.79-7.25-8.22-3.71-11.6-4-33.19-4-47v-9.35c0-3.3,0-6.6-.08-9.9-3.79,3.06-7.65,5.8-11.92,8.69a3,3,0,0,1-1.45.41,2.6,2.6,0,0,1-2.58-2.58,2.76,2.76,0,0,1,1.13-2.17,161.4,161.4,0,0,0,14.82-11c-.16-9.5-.32-18.85-.32-28.43,0-11,.24-22.08.88-33.43.57-8.46,1.61-23.44,12.25-23.44,13.29,0,16.19,18.85,16.19,29,0,28.11-8.14,44.54-23.85,58.64v2.25a4.92,4.92,0,0,1,1.86-.48c3.7,0,6.52,3.46,8.46,6.68a84,84,0,0,0,10.47.57,2.58,2.58,0,0,1,0,5.15q-4.11,0-7.74-.24c4.52,10.88,6.85,24.89,6.85,40.44C1162.31,352.44,1159.73,364.37,1148.78,364.37ZM1161.1,227c0-11-3.86-23.85-11-23.85-4.27,0-6.45,8.3-7.09,18.61-.65,11.2-.89,22.23-.89,33.11,0,7.89.16,16,.24,23.76C1154.9,266.09,1161.1,251.84,1161.1,227Zm-18.61,72.81v3.14c0,13.3.17,39.48,3.31,51.07,1.13,3.87,2.41,5.24,3,5.24,3.62-.08,6-1.93,7.33-7.65a54.53,54.53,0,0,0,1.05-11.6,118.34,118.34,0,0,0-3.79-30.37,53,53,0,0,0-3.95-10.79c-2.74-.57-5.15-1.29-6.93-2.82Z"/><path class="cls-3" d="M1217.25,293.4a2.67,2.67,0,0,1-1,2.09,21.94,21.94,0,0,1-11.44,4.27c-9.34,0-10.07-10.55-10.31-17.88-.16-4.11-.08-8.05-.89-10.71-.64-2.42-1.85-3.71-5-3.71-1.77,0-5.32.49-7.57.65-1,17.4-5.8,31.65-17.8,31.65a2.58,2.58,0,1,1,0-5.15c6.76,0,11.76-9.19,12.72-27.23-2.65-1.37-3.3-4.11-3.3-6.93,0-2.25,1.29-5.39,4.35-5.39,3.38,0,4.27,3.54,4.27,6V263a71.11,71.11,0,0,1,7.33-.64c5.8,0,8.7,3.3,10,7.33s1,8.78,1,12.08c.25,8.7,1.54,12.89,5.16,12.89a19.93,19.93,0,0,0,8.38-3.3,2.58,2.58,0,0,1,1.53-.49A2.65,2.65,0,0,1,1217.25,293.4Z"/><path class="cls-3" d="M729.86,112.45l-.06-.16a18.45,18.45,0,0,0-3.09-4.58c-.63-.76-1.28-1.47-1.93-2.2l-.06-.05a1.39,1.39,0,0,0-.32,0c-.75,0-1.5,0-2.24.08l-.49.1h0a31.62,31.62,0,0,1-16.83,8.09c-9.9,1.59-12.27-5.75-16.19-17.91-1.09-3.38-2.33-7.21-3.86-11.15-3.61-9.56-10-22-23.77-19.8-7.78,1.24-12.78,7.63-14.9,19-5.53-9.86-12.67-14.58-20.33-13.35-7.2,1.15-13,7.79-16,18.2-.14.42-.26.84-.38,1.27-2.86-6-8.71-15.45-18.8-13.83-14.69,2.35-17.24,17.44-19.49,30.75-.38,2.23-.74,4.35-1.15,6.36v.13a7.56,7.56,0,0,0,0,2,5.17,5.17,0,0,0,2.53,3.71,6.1,6.1,0,0,0,4,.75,5.37,5.37,0,0,0,4.44-4.41c.3-1.51.59-3,.86-4.39,2.76-14.26,4.43-22.87,10.62-23.86,1.53-.24,6.34,3.77,10.59,17.33,3.25,10.75,5.58,25.28,6.34,30.06a5.36,5.36,0,0,0,6,4.53l.4-.05a5.45,5.45,0,0,0,4.64-6.24l-.19-1.23c-1.84-11.48-2.32-20.34-1.56-28.74a52.32,52.32,0,0,1,1.94-11c2.21-7.59,5.62-10,7.11-10.28,1.11-.18,2.52-.11,4.56,1.77,1.74,1.6,5.17,5.79,8.62,15.9,2.58,7.18,4.95,17,7.06,29.34v.05a5.67,5.67,0,0,0,6.44,4.54l.14,0c2.38-.55,5-2.31,4.21-7.57l-.1-.57a6.65,6.65,0,0,0,0-1.09,153,153,0,0,1-1.61-30.34c.62-10.72,2.79-17.15,5.93-17.66,2.75-.44,5.16.27,8,5.15a46.08,46.08,0,0,1,3.7,7.75c.87,2.24,1.68,5,2.54,7.81,4,13.24,9.4,31.36,29.52,28.17l.14,0a43.52,43.52,0,0,0,22.58-11A5.18,5.18,0,0,1,729.86,112.45Z"/><path class="cls-3" d="M775.45,85.76c-.6-4.12-2.12-11.93-5.59-18s-7.6-7.79-12.79-9-10.06-1.62-15-.9a29.78,29.78,0,0,0-20.42,12.24c-4.82,6.89-6.62,15.67-5.2,25.4.82,5.67,4.83,14.79,5.65,15.57h0l0,0a29.84,29.84,0,0,0,3.25,4.73,14.77,14.77,0,0,0,2.81,2.78,17,17,0,0,0,1.6,1h0a25.51,25.51,0,0,0,19.45,4.59C777.36,120.08,776.94,96,775.45,85.76Zm-27.87,27a14.74,14.74,0,0,1-13.3-4.57c-3.26-3.43-5.53-8.53-6.38-14.37-1-6.92.05-12.86,3.08-17.17,2.8-4,7.22-6.56,12.78-7.37l.68-.08a19.26,19.26,0,0,1,6.14.56l.26,0,.23,0a5.11,5.11,0,0,1,1.59.1l.32,0c2-.06,3.88,1.33,5.51,3l1.38,1.5A38.19,38.19,0,0,1,764,87.43C766.32,103.16,761.4,110.74,747.58,112.75Z"/><path class="cls-3" d="M896,84.07a5.88,5.88,0,0,0-2.07-3.64,5.68,5.68,0,0,0-4.48-1.25h0a5.8,5.8,0,0,0-4.82,4.36c-2,8.12-11.15,10-11.23,10-9.46,1.32-13.09-9.08-17.3-21.12-5-14.3-10.66-30.52-28.39-27.93-7,1-11.81,7.07-14.48,18.44C808.1,52.86,801,48.23,792.37,49.49c-11.49,1.67-15.75,6.88-19.51,11.48a28.78,28.78,0,0,1-3.76,4l-.67.57.71,1a28.56,28.56,0,0,1,2.48,4.73c.48,1.12.94,2.49,1.41,3.79l.42,1.54,1.4-.83a28.63,28.63,0,0,0,7.93-7.38c2.92-3.59,5.44-6.68,11.26-7.53,7.25-1.07,13.36,14.83,18.08,47.23a5.7,5.7,0,0,0,6.22,4.92l.33,0a5.71,5.71,0,0,0,4.88-6.55c-2.63-18.07.22-49.77,5.78-50.58,6.14-.88,9.09,7.78,12.51,17.82,5.06,14.86,11.31,33.25,31.45,31.43.61,0,1.23-.12,1.87-.22s16.75-2.62,20.74-18.67l0-.19A8.36,8.36,0,0,0,896,84.07Z"/><path class="cls-6" d="M611.67,222.94C604.21,194,578,172.55,547,172.55a66.58,66.58,0,0,0,0,133.16h0a66.25,66.25,0,0,0,31.56-8,15.87,15.87,0,0,0,3.33-25.5l-.55-.51A15.87,15.87,0,0,0,563,269.25a34.23,34.23,0,0,1-40.44-6.35,4.46,4.46,0,0,1,3.15-7.59h72.06a16.09,16.09,0,0,0,16-15.89h0A67.29,67.29,0,0,0,611.67,222.94Zm-87.74,0a3.57,3.57,0,0,1-2.77-5.83,34.13,34.13,0,0,1,51-.77,4,4,0,0,1-2.93,6.6Z"/><rect class="cls-6" x="521.63" y="169.23" width="50.31" height="19.07" rx="9.54" transform="translate(-28.37 189.82) rotate(-19.21)"/><path class="cls-6" d="M1115.1,223.55c-7.46-29-33.66-50.39-64.65-50.39a66.81,66.81,0,0,0-64.57,50.39,66.56,66.56,0,0,0,64.57,82.77h0a66.28,66.28,0,0,0,31.56-8,15.88,15.88,0,0,0,3.33-25.5l-.55-.51a15.87,15.87,0,0,0-18.34-2.48,34.23,34.23,0,0,1-40.44-6.35,4.45,4.45,0,0,1,3.15-7.58h72a16.1,16.1,0,0,0,16-15.9h0A67.78,67.78,0,0,0,1115.1,223.55Zm-87.74,0a3.56,3.56,0,0,1-2.77-5.83,34.13,34.13,0,0,1,51-.77,4,4,0,0,1-2.93,6.6Z"/></g></g></svg>